<?xml version="1.0" encoding="iso-8859-1"?>
<!-- Generator: Adobe Illustrator 19.0.0, SVG Export Plug-In . SVG Version: 6.00 Build 0)  -->
<svg version="1.1" id="Layer_1" xmlns="http://www.w3.org/2000/svg" xmlns:xlink="http://www.w3.org/1999/xlink" x="0px" y="0px"
	 viewBox="0 0 480 480" style="enable-background:new 0 0 480 480;" xml:space="preserve">
<path style="fill:#19BF55;" d="M480,320.9c0,8.8-7.2,16-16,16H16c-8.8,0-16-7.2-16-16V75.3c0-8.8,7.2-16,16-16h448
	c8.8,0,16,7.2,16,16V320.9z"/>
<path style="fill:#10AF58;" d="M464,59.3c8.8,0,16,7.2,16,16v245.6c0,8.8-7.2,16-16,16H16c-8.8,0-16-7.2-16-16"/>
<g>
	<path style="fill:#0C9668;" d="M128,201.7c12.8-7.2,20-19.2,20-32.8c0-12.8-4.8-23.2-13.6-29.6c-10.4-8-23.2-12-44-12
		c-12.8,0-27.2,1.6-36,3.2c-1.6,0-3.2,1.6-3.2,4v148.8c0,1.6,1.6,3.2,3.2,4c4.8,0.8,15.2,1.6,30.4,1.6c25.6,0,44-4.8,54.4-15.2
		c9.6-8.8,13.6-20,13.6-32.8C153.6,220.1,141.6,207.3,128,201.7z M92,192.1H78.4v-41.6c3.2-0.8,8-0.8,13.6-0.8
		c29.6,0,29.6,16,29.6,20.8C120.8,184.1,109.6,192.1,92,192.1z M90.4,265.7c-5.6,0-9.6,0-12.8-0.8v-50.4h12
		c10.4,0,35.2,2.4,35.2,25.6C125.6,262.5,104,265.7,90.4,265.7z"/>
	<path style="fill:#0C9668;" d="M287.2,128.1h-20c-2.4,0-4,1.6-4,4v89.6c0,29.6-11.2,44.8-32.8,44.8c-20,0-31.2-16-31.2-44.8v-89.6
		c0-2.4-1.6-4-4-4H176c-2.4,0-4,1.6-4,4v88.8c0,59.2,36,68,57.6,68c38.4,0,60.8-25.6,60.8-68.8v-88
		C291.2,130.5,289.6,128.1,287.2,128.1z"/>
	<path style="fill:#0C9668;" d="M428,130.5c-0.8-0.8-1.6-1.6-3.2-1.6h-22.4c-1.6,0-2.4,0.8-3.2,2.4l-21.6,41.6l-2.4,4.8
		c-4,7.2-7.2,13.6-9.6,20c-3.2-7.2-7.2-15.2-12-24L332,132.1c-0.8-1.6-1.6-2.4-3.2-2.4h-22.4c-1.6,0-2.4,0.8-3.2,1.6
		c-0.8,0.8-0.8,2.4,0,4l47.2,86.4v63.2c0,2.4,1.6,4,4,4h20c2.4,0,4-1.6,4-4v-63.2l50.4-85.6C428.8,132.9,428.8,131.3,428,130.5z"/>
</g>
<path style="fill:#FFFFFF;" d="M128,191.3c12.8-7.2,20-19.2,20-32.8c0-12.8-4.8-23.2-13.6-29.6c-10.4-8-23.2-12-44-12
	c-12.8,0-27.2,1.6-36,3.2c-1.6,0-3.2,1.6-3.2,4v148.8c0,1.6,1.6,3.2,3.2,4c4.8,0.8,15.2,1.6,30.4,1.6c25.6,0,44-4.8,54.4-15.2
	c9.6-8.8,13.6-20,13.6-32.8C153.6,209.7,141.6,197.7,128,191.3z M92,182.5H78.4v-41.6c3.2-0.8,8-0.8,13.6-0.8
	c29.6,0,29.6,16,29.6,20.8C120.8,173.7,109.6,182.5,92,182.5z M90.4,255.3c-5.6,0-9.6,0-12.8-0.8v-50.4h12
	c10.4,0,35.2,2.4,35.2,25.6C125.6,252.1,104,255.3,90.4,255.3z"/>
<path style="fill:#CEE8EF;" d="M76,277.7c2.4,0,5.6,0,8.8,0c25.6,0,44-4.8,54.4-15.2c8-8,12.8-17.6,13.6-28.8L76,277.7z"/>
<path style="fill:#FFFFFF;" d="M287.2,118.5h-20c-2.4,0-4,1.6-4,4v89.6c0,29.6-11.2,44-32.8,44c-20,0-31.2-16-31.2-44v-89.6
	c0-2.4-1.6-4-4-4H176c-2.4,0-4,1.6-4,4v88.8c0,59.2,36,68,57.6,68c38.4,0,60.8-25.6,60.8-68.8v-88
	C291.2,120.1,289.6,118.5,287.2,118.5z"/>
<path style="fill:#CEE8EF;" d="M264,172.1v39.2c0,29.6-11.2,44-32.8,44c-20,0-31.2-16-31.2-44v-3.2l-26.4,15.2
	c4.8,48,37.6,56,57.6,56c38.4,0,60.8-25.6,60.8-68.8v-52.8L264,172.1z"/>
<path style="fill:#FFFFFF;" d="M428,120.1c-0.8-0.8-1.6-1.6-3.2-1.6h-22.4c-1.6,0-2.4,0.8-3.2,2.4l-21.6,41.6l-2.4,4.8
	c-4,7.2-7.2,13.6-9.6,20c-3.2-7.2-7.2-15.2-12-24l-20.8-43.2c-0.8-1.6-1.6-2.4-3.2-2.4h-22.4c-1.6,0-2.4,0.8-3.2,1.6
	c-0.8,0.8-0.8,2.4,0,4l47.2,86.4v63.2c0,2.4,1.6,4,4,4h20c2.4,0,4-1.6,4-4v-63.2l50.4-85.6C428.8,123.3,428.8,121.7,428,120.1z"/>
<path style="fill:#CEE8EF;" d="M351.2,209.7v63.2c0,2.4,1.6,4,4,4h20c2.4,0,4-1.6,4-4v-63.2l50.4-85.6c0.8-0.8,0.8-2.4,0-4
	c-0.8-0.8-1.6-1.6-3.2-1.6H404c-1.6,0-2.4,0.8-3.2,2.4l-21.6,41.6l-2.4,4.8c-4,7.2-7.2,13.6-9.6,20c-3.2-7.2-7.2-15.2-12-24
	l-16-31.2l-24.8,12L351.2,209.7z"/>
<path style="fill:#24D35E;" d="M0,75.3c0-8.8,7.2-16,16-16h448c8.8,0,16,7.2,16,16"/>
<path style="opacity:0.1;fill:#494946;enable-background:new    ;" d="M469.6,373.7l-76.8-76.8H420c7.2,0,14.4-3.2,19.2-8
	c4.8-4.8,8-12,8-19.2c0-15.2-12-27.2-27.2-27.2h-92.8c-14.4,0-27.2,12.8-27.2,27.2v92.8c0,15.2,12,27.2,27.2,27.2s27.2-12,27.2-27.2
	v-26.4l76.8,76.8c10.4,10.4,28,10.4,38.4,0C480.8,401.7,480.8,384.9,469.6,373.7z"/>
<path style="fill:#515150;" d="M420,228.1h-92.8c-14.4,0-27.2,12.8-27.2,27.2v92.8c0,15.2,12,27.2,27.2,27.2s27.2-12,27.2-27.2
	v-27.2l76.8,76.8c10.4,10.4,28,10.4,38.4,0s10.4-28,0-38.4l-76.8-76.8H420c7.2,0,14.4-3.2,19.2-8c4.8-4.8,8-12,8-19.2
	C447.2,240.1,435.2,228.1,420,228.1z"/>
<path style="fill:#494946;" d="M354.4,320.9l76.8,76.8c10.4,10.4,28,10.4,38.4,0s10.4-28,0-38.4l-76.8-76.8H420
	c7.2,0,14.4-3.2,19.2-8c4.8-4.8,8-12,8-19.2c0-15.2-12-27.2-27.2-27.2h-92.8"/>
<g>
</g>
<g>
</g>
<g>
</g>
<g>
</g>
<g>
</g>
<g>
</g>
<g>
</g>
<g>
</g>
<g>
</g>
<g>
</g>
<g>
</g>
<g>
</g>
<g>
</g>
<g>
</g>
<g>
</g>
</svg>
