<?xml version="1.0" encoding="iso-8859-1"?>
<!-- Generator: Adobe Illustrator 19.0.0, SVG Export Plug-In . SVG Version: 6.00 Build 0)  -->
<svg xmlns="http://www.w3.org/2000/svg" xmlns:xlink="http://www.w3.org/1999/xlink" version="1.1" id="Layer_1" x="0px" y="0px" viewBox="0 0 512 512" style="enable-background:new 0 0 512 512;" xml:space="preserve" width="512px" height="512px">
<g>
	<g>
		<path d="M256,0C114.615,0,0,114.615,0,256s114.615,256,256,256s256-114.615,256-256S397.385,0,256,0z M247.467,330.667    c-0.048,4.713-3.907,8.494-8.619,8.446c-1.502-0.015-2.974-0.427-4.266-1.193c-14.305-8.004-30.457-12.123-46.848-11.947    c-16.391-0.177-32.543,3.942-46.848,11.947c-4.054,2.404-9.289,1.066-11.692-2.987c-0.766-1.292-1.178-2.764-1.193-4.266v-144.64    c0-22.613,26.795-40.96,59.733-40.96s59.733,18.347,59.733,40.96V330.667z M384,330.667c-0.048,4.713-3.907,8.494-8.619,8.446    c-1.502-0.015-2.974-0.427-4.266-1.193c-14.305-8.004-30.457-12.123-46.848-11.947c-16.391-0.177-32.543,3.942-46.848,11.947    c-4.054,2.404-9.289,1.066-11.692-2.987c-0.766-1.292-1.178-2.764-1.193-4.266v-144.64c0-22.613,26.795-40.96,59.733-40.96    c32.939,0,59.733,18.347,59.733,40.96V330.667z" fill="#39479d"/>
	</g>
</g>
<g>
</g>
<g>
</g>
<g>
</g>
<g>
</g>
<g>
</g>
<g>
</g>
<g>
</g>
<g>
</g>
<g>
</g>
<g>
</g>
<g>
</g>
<g>
</g>
<g>
</g>
<g>
</g>
<g>
</g>
</svg>
