<?xml version="1.0" encoding="utf-8"?>
<!DOCTYPE svg PUBLIC "-//W3C//DTD SVG 1.1//EN" "http://www.w3.org/Graphics/SVG/1.1/DTD/svg11.dtd">
<svg version="1.1" id="Layer_1" xmlns="http://www.w3.org/2000/svg" xmlns:xlink="http://www.w3.org/1999/xlink" x="0px" y="0px"
	 width="158px" height="77.826px" viewBox="9.167 60.421 158 77.826" enable-background="new 9.167 60.421 158 77.826"
	 xml:space="preserve">
<g>
	<path fill="#787878" d="M31.891,67.394L31.891,67.394c0.212-0.006,0.425-0.015,0.637-0.027l0,0l0,0l0,0
		C32.316,67.379,32.103,67.389,31.891,67.394L31.891,67.394L31.891,67.394z"/>
</g>
<g>
	<path fill="#3B479D" d="M60.365,94.361c0.032,0.829-0.512,1.474-1.211,1.434c-14.984-0.77-29.97-1.757-44.956-2.963
		c-0.698-0.057-1.292-0.576-1.324-1.157c-0.398-7.565-0.797-15.05-1.195-22.455c-0.033-0.571,0.513-1.111,1.211-1.209
		c14.986-2.085,29.973-4.389,44.959-6.913c0.698-0.115,1.287,0.45,1.319,1.267C59.569,72.95,59.966,83.615,60.365,94.361z"/>
</g>
<g>
	<path fill="#FFFFFF" d="M30.556,86.075c-1.026,0.121-2.054,0.239-3.081,0.354c0.089,1.48,0.179,2.96,0.268,4.446
		c-4.311-2.478-8.62-4.746-12.929-6.804c3.977-2.709,7.956-5.687,11.933-8.938c0.102,1.448,0.203,2.899,0.305,4.355
		c13.667-2.346,27.335-5.327,41.002-8.943c0.112,2.771,0.225,5.548,0.337,8.331c0.026,0.781,0.053,1.562,0.079,2.343"/>
</g>
<g>
	<path fill="#6CBE45" d="M74.326,111.603c0.028,0.803-0.496,1.426-1.17,1.387c-14.161-0.762-28.323-1.73-42.485-2.906
		c-0.674-0.059-1.247-0.563-1.275-1.125c-0.387-7.328-0.774-14.579-1.163-21.747c-0.025-0.553,0.5-1.075,1.179-1.175
		c14.158-2.004,28.317-4.216,42.477-6.633c0.679-0.118,1.252,0.428,1.28,1.219C73.555,90.87,73.941,101.197,74.326,111.603z"/>
</g>
<g>
	<path fill="#FFFFFF" d="M44.722,94.32c1.054,0.028,2.107,0.058,3.162,0.088c-0.085-1.737-0.171-3.471-0.256-5.202
		c4.295,2.391,8.589,4.999,12.884,7.825c-3.981,3.797-7.964,7.328-11.946,10.592c-0.097-1.77-0.195-3.537-0.292-5.303
		c-13.035-0.865-26.069-1.596-39.104-2.191c-0.116-2.142-0.232-4.278-0.349-6.407c-0.013-0.196-0.027-0.392-0.041-0.588"/>
</g>
<path fill="#3B479D" d="M77.983,61.102h5.648c1.015,0,4.729,0.794,4.729,4.854v6.469h6.071c0,5.23,0.122,8.294-6.071,8.294v20.429
	c0,3.869,1.976,3.592,6.071,3.592v7.818c-3.544,0-7.078,0-10.617,0c-5.001,0-5.831-3.023-5.831-7.465V61.102L77.983,61.102z
	 M138.127,72.406l8.776,25.009c2.601,5.882-0.959,7.534-7.322,7.257v7.85l7.119-0.102c6.096-0.084,8.833-5.018,10.427-10.385
	l10.427-31.337l-5.942-0.064c-2.77-0.065-4.436,1.32-5.014,4.153l-3.827,13.261l-4.616-15.634L138.127,72.406L138.127,72.406z
	 M118.647,72.111c14.97-0.433,21.022,4.707,21.022,13.047l0.01,13.794c0,5.723-2.438,10.504-7.98,12.612
	c-3.673,1.398-12.401,1.305-16.253,0.32c-9.719-2.482-10.961-19.636,0.487-22.29c3.032-0.924,9.281-0.552,12.548-2.321
	c2.161-1.169,3.234-4.187,0.675-5.725c-0.951-0.569-2.227-0.909-3.584-1.098v-0.008c-2.3-0.291-4.6-0.382-6.891-0.209
	C118.624,77.64,118.729,74.685,118.647,72.111L118.647,72.111z M95.228,94.028v18.53h10.459l0,0v-12.465l0,0
	c0-8.432-0.854-17.131,8.183-19.074c1.268-0.324,2.544-0.55,3.812-0.69v-8.174C105.247,72.262,95.228,76.904,95.228,94.028
	L95.228,94.028L95.228,94.028z M131.951,93.061c-3.014,1.532-7.085,1.782-10.459,2.233c-4.527,0.715-6.59,5.133-4.777,8.105
	c2.226,3.639,8.078,2.762,11.142,0.834C132.39,101.384,131.902,97.648,131.951,93.061z"/>
<g>
	<path fill="#6CBE45" d="M23.089,135.478c-0.617,0.293-2.088,0.91-4.144,0.91c-4.056,0-6.761-2.969-6.761-7.199
		c0-4.502,3.055-7.527,7.26-7.527c1.736,0,3.174,0.5,3.703,0.881l-0.496,1.148c-0.678-0.41-1.763-0.824-3.324-0.824
		c-3.792,0-5.729,2.883-5.729,6.203c0,3.703,2.32,6.111,5.583,6.111c1.675,0,2.763-0.467,3.527-0.822L23.089,135.478z"/>
	<path fill="#6CBE45" d="M31.756,115.195h1.41v9.318h0.057c0.416-0.793,1.089-1.529,1.914-2.027c0.826-0.5,1.792-0.824,2.849-0.824
		c1.325,0,4.912,0.678,4.912,5.939v8.492h-1.41v-8.348c0-2.525-1-4.846-3.885-4.846c-1.999,0-3.64,1.439-4.258,3.172
		c-0.146,0.439-0.179,0.822-0.179,1.41v8.611h-1.41V115.195L31.756,115.195z"/>
	<path fill="#6CBE45" d="M53.002,128.892c0,4.498,2.471,6.291,5.38,6.291c2.056,0,3.113-0.41,3.909-0.793l0.35,1.088
		c-0.528,0.293-1.966,0.912-4.437,0.912c-4.056,0-6.583-2.941-6.583-7.082c0-4.705,2.702-7.646,6.347-7.646
		c4.616,0,5.498,4.352,5.498,6.381c0,0.383,0,0.586-0.063,0.85H53.002z M61.999,127.775c0.025-1.969-0.796-4.936-4.205-4.936
		c-3.117,0-4.441,2.762-4.701,4.936H61.999z"/>
	<path fill="#6CBE45" d="M82.067,135.478c-0.619,0.293-2.084,0.91-4.146,0.91c-4.059,0-6.76-2.969-6.76-7.199
		c0-4.502,3.059-7.527,7.261-7.527c1.735,0,3.177,0.5,3.706,0.881l-0.503,1.148c-0.674-0.41-1.764-0.824-3.319-0.824
		c-3.792,0-5.734,2.883-5.734,6.203c0,3.703,2.325,6.111,5.587,6.111c1.677,0,2.763-0.467,3.526-0.822L82.067,135.478z"/>
	<path fill="#6CBE45" d="M92.115,128.775h0.057c0.35-0.441,0.911-1.088,1.349-1.559l4.998-5.232h1.708l-5.706,5.85l6.501,8.26
		h-1.707l-5.762-7.406l-1.438,1.529v5.877h-1.413v-20.898h1.413V128.775L92.115,128.775z"/>
	<path fill="#6CBE45" d="M114.065,136.419c-3.641,0-6.461-2.854-6.461-7.264c0-4.816,3.169-7.494,6.672-7.494
		c3.908,0,6.549,2.941,6.549,7.264c0,5.229-3.617,7.494-6.729,7.494H114.065z M114.155,135.24c2.94,0,5.265-2.643,5.265-6.256
		c0-2.59-1.448-6.145-5.176-6.145c-3.617,0-5.234,3.203-5.234,6.23c0,3.527,2.234,6.17,5.12,6.17H114.155L114.155,135.24z"/>
	<path fill="#6CBE45" d="M140.573,132.656c0,1.234,0.033,2.352,0.122,3.438h-1.325l-0.089-2.527h-0.057
		c-0.707,1.324-2.325,2.854-4.827,2.854c-1.789,0-4.819-0.912-4.819-6.232v-8.201h1.414v7.938c0,3.055,0.942,5.258,3.73,5.258
		c2.056,0,3.56-1.438,4.177-2.85c0.146-0.441,0.26-0.998,0.26-1.559v-8.789h1.414V132.656L140.573,132.656z"/>
	<path fill="#6CBE45" d="M152.527,118.869v3.117h4.03v1.146h-4.03v9.172c0,1.791,0.561,2.91,2.063,2.91
		c0.731,0,1.26-0.09,1.618-0.207l0.169,1.059c-0.47,0.176-1.112,0.322-1.966,0.322c-1.031,0-1.885-0.322-2.414-0.971
		c-0.642-0.734-0.877-1.939-0.877-3.379v-8.906h-2.381v-1.146h2.381V119.4L152.527,118.869z"/>
</g>
</svg>
