<?xml version="1.0" encoding="utf-8"?>
<!DOCTYPE svg PUBLIC "-//W3C//DTD SVG 1.1//EN" "http://www.w3.org/Graphics/SVG/1.1/DTD/svg11.dtd">
<svg version="1.1" id="Layer_1" xmlns="http://www.w3.org/2000/svg" xmlns:xlink="http://www.w3.org/1999/xlink" x="0px" y="0px"
	 width="174.932px" height="83px" viewBox="0 0 174.932 83" enable-background="new 0 0 174.932 83" xml:space="preserve">
<g>
	<g>
		<path fill="#787878" d="M26.151,7.936L26.151,7.936c0.231-0.005,0.464-0.015,0.695-0.028l0,0l0,0l0,0
			C26.615,7.921,26.383,7.93,26.151,7.936L26.151,7.936L26.151,7.936z"/>
	</g>
	<g>
		<path fill="#3B479D" d="M57.176,36.794c0.038,0.888-0.559,1.576-1.319,1.534c-16.327-0.823-32.654-1.881-48.981-3.172
			c-0.763-0.061-1.407-0.615-1.443-1.239C4.998,25.822,4.563,17.813,4.13,9.889c-0.036-0.61,0.56-1.188,1.32-1.293
			c16.328-2.231,32.656-4.696,48.984-7.396c0.761-0.122,1.404,0.482,1.438,1.355C56.307,13.882,56.741,25.295,57.176,36.794z"/>
	</g>
	<g>
		<path fill="#6CBE45" d="M24.697,27.928c-1.119,0.13-2.237,0.256-3.356,0.379c0.098,1.582,0.194,3.167,0.292,4.756
			c-4.695-2.652-9.392-5.079-14.087-7.282c4.334-2.897,8.668-6.084,13.002-9.562c0.11,1.549,0.222,3.102,0.332,4.657
			c14.892-2.508,29.783-5.697,44.674-9.567c0.122,2.966,0.245,5.938,0.367,8.914c0.028,0.835,0.058,1.671,0.086,2.506"/>
	</g>
	<g>
		<path fill="#FFFFFF" d="M72.388,55.242c0.031,0.858-0.541,1.525-1.276,1.485c-15.43-0.816-30.859-1.854-46.289-3.11
			c-0.733-0.062-1.357-0.601-1.391-1.204c-0.421-7.842-0.843-15.599-1.265-23.271c-0.027-0.591,0.544-1.152,1.283-1.258
			c15.427-2.146,30.854-4.512,46.28-7.099c0.738-0.126,1.363,0.458,1.396,1.305C71.546,33.057,71.968,44.106,72.388,55.242z"/>
	</g>
	<g>
		<path fill="#6CBE45" d="M40.132,36.75c1.148,0.03,2.295,0.062,3.443,0.094c-0.093-1.858-0.186-3.715-0.278-5.568
			c4.679,2.56,9.359,5.351,14.038,8.374c-4.339,4.063-8.678,7.842-13.017,11.337c-0.105-1.896-0.212-3.788-0.317-5.677
			c-14.202-0.925-28.403-1.706-42.605-2.345c-0.127-2.292-0.254-4.577-0.381-6.854C1,35.899,0.984,35.69,0.97,35.479"/>
	</g>
	<path fill-rule="evenodd" clip-rule="evenodd" fill="#FFFFFF" d="M76.371,1.203h6.153c1.106,0,5.153,0.851,5.153,5.194v6.923h6.613
		c0,5.598,0.133,8.875-6.613,8.875v21.861c0,4.139,2.152,3.844,6.613,3.844v8.365c-3.86,0-7.71,0-11.566,0
		c-5.449,0-6.354-3.236-6.354-7.987V1.203L76.371,1.203z M141.9,13.299l9.562,26.762c2.835,6.294-1.044,8.062-7.977,7.766v8.399
		l7.756-0.108c6.642-0.091,9.625-5.369,11.36-11.113l11.36-33.532l-6.474-0.07c-3.019-0.069-4.834,1.413-5.462,4.446l-4.17,14.189
		l-5.029-16.729L141.9,13.299L141.9,13.299z M120.678,12.984c16.309-0.463,22.904,5.037,22.904,13.96l0.009,14.763
		c0,6.126-2.656,11.241-8.693,13.496c-4.002,1.495-13.513,1.396-17.708,0.344c-10.591-2.66-11.944-21.015,0.529-23.854
		c3.304-0.987,10.113-0.59,13.671-2.484c2.355-1.252,3.525-4.479,0.737-6.127c-1.036-0.607-2.427-0.97-3.905-1.173v-0.009
		c-2.507-0.311-5.013-0.408-7.51-0.224C120.651,18.9,120.767,15.739,120.678,12.984L120.678,12.984z M95.16,36.438v19.828h11.396
		l0,0V42.928l0,0c0-9.024-0.93-18.332,8.915-20.411c1.381-0.348,2.771-0.59,4.152-0.739v-8.745
		C106.076,13.146,95.16,18.112,95.16,36.438L95.16,36.438L95.16,36.438z M135.171,35.402c-3.284,1.639-7.72,1.906-11.395,2.39
		c-4.934,0.765-7.181,5.495-5.207,8.673c2.427,3.896,8.803,2.955,12.14,0.895C135.649,44.31,135.118,40.312,135.171,35.402z"/>
	<g>
		<path fill="#FFFFFF" d="M16.562,80.79c-0.672,0.315-2.275,0.977-4.516,0.977c-4.418,0-7.365-3.18-7.365-7.707
			c0-4.813,3.328-8.052,7.91-8.052c1.891,0,3.459,0.534,4.033,0.943l-0.541,1.226c-0.738-0.439-1.921-0.879-3.62-0.879
			c-4.131,0-6.243,3.081-6.243,6.636c0,3.963,2.528,6.542,6.083,6.542c1.825,0,3.011-0.503,3.843-0.881L16.562,80.79z"/>
		<path fill="#FFFFFF" d="M26.005,59.087h1.535v9.971h0.063c0.452-0.849,1.187-1.636,2.085-2.17c0.9-0.535,1.953-0.88,3.104-0.88
			c1.443,0,5.352,0.723,5.352,6.355v9.088h-1.535v-8.933c0-2.705-1.09-5.189-4.232-5.189c-2.179,0-3.967,1.541-4.641,3.396
			c-0.159,0.473-0.195,0.882-0.195,1.511v9.216h-1.535V59.087z"/>
		<path fill="#FFFFFF" d="M49.154,73.744c0,4.814,2.692,6.731,5.859,6.731c2.241,0,3.393-0.44,4.261-0.848l0.38,1.162
			c-0.575,0.315-2.142,0.977-4.834,0.977c-4.418,0-7.172-3.146-7.172-7.58c0-5.033,2.944-8.179,6.915-8.179
			c5.029,0,5.99,4.654,5.99,6.826c0,0.408,0,0.628-0.067,0.91H49.154z M58.955,72.55c0.026-2.106-0.868-5.283-4.582-5.283
			c-3.395,0-4.839,2.956-5.122,5.283H58.955z"/>
		<path fill="#FFFFFF" d="M80.82,80.79c-0.673,0.315-2.271,0.977-4.516,0.977c-4.423,0-7.367-3.18-7.367-7.707
			c0-4.813,3.334-8.052,7.911-8.052c1.891,0,3.462,0.534,4.038,0.943l-0.549,1.226c-0.733-0.439-1.921-0.879-3.617-0.879
			c-4.13,0-6.246,3.081-6.246,6.636c0,3.963,2.532,6.542,6.086,6.542c1.829,0,3.012-0.503,3.844-0.881L80.82,80.79z"/>
		<path fill="#FFFFFF" d="M91.769,73.618h0.062c0.382-0.473,0.991-1.162,1.47-1.667l5.447-5.599h1.857l-6.215,6.259l7.083,8.84
			h-1.858l-6.278-7.927l-1.567,1.635v6.292h-1.541V59.087h1.541V73.618z"/>
		<path fill="#FFFFFF" d="M115.685,81.797c-3.968,0-7.04-3.051-7.04-7.771c0-5.156,3.454-8.019,7.27-8.019
			c4.259,0,7.136,3.146,7.136,7.77c0,5.597-3.939,8.02-7.33,8.02H115.685z M115.78,80.538c3.206,0,5.738-2.83,5.738-6.698
			c0-2.77-1.576-6.573-5.639-6.573c-3.941,0-5.704,3.429-5.704,6.667c0,3.774,2.436,6.604,5.58,6.604H115.78z"/>
		<path fill="#FFFFFF" d="M144.565,77.771c0,1.321,0.035,2.517,0.133,3.68h-1.443l-0.098-2.705h-0.062
			c-0.77,1.416-2.532,3.051-5.26,3.051c-1.946,0-5.25-0.975-5.25-6.667v-8.777h1.541v8.494c0,3.27,1.026,5.629,4.064,5.629
			c2.239,0,3.877-1.54,4.551-3.051c0.158-0.471,0.282-1.069,0.282-1.668v-9.404h1.541V77.771z"/>
		<path fill="#FFFFFF" d="M157.591,63.019v3.334h4.391v1.227h-4.391v9.815c0,1.917,0.609,3.112,2.249,3.112
			c0.797,0,1.372-0.092,1.762-0.219l0.185,1.133c-0.514,0.188-1.212,0.346-2.144,0.346c-1.123,0-2.052-0.346-2.628-1.039
			c-0.699-0.787-0.957-2.076-0.957-3.618v-9.53h-2.594v-1.227h2.594v-2.767L157.591,63.019z"/>
	</g>
</g>
</svg>
